<svg version="1.1" xmlns="http://www.w3.org/2000/svg" xmlns:xlink="http://www.w3.org/1999/xlink" width="489.48949" height="353.00765" viewBox="0,0,489.48949,353.00765"><g transform="translate(14.87988,11.09568)"><g data-paper-data="{&quot;isPaintingLayer&quot;:true}" fill-rule="nonzero" stroke-linejoin="miter" stroke-miterlimit="10" stroke-dasharray="" stroke-dashoffset="0" style="mix-blend-mode: normal"><path d="M-14.87988,332.74816v-343.84384l489.48949,9.1638v343.84385z" fill="none" stroke="none" stroke-width="0" stroke-linecap="butt"/><path d="M63.65686,309.78999c0,-33.27018 0,-238.38076 0,-256.44797c0,-2.65364 1.44554,-3.94224 3.24955,-3.94224c31.65266,0 325.2229,0 345.74666,0c2.23068,0 3.69008,1.2886 3.69008,3.94225c0,0.84168 0,225.53853 0,256.44797c0,2.38791 -0.68226,3.67392 -3.19615,3.67392c-21.59605,0 -312.19129,0 -346.24058,0c-2.12385,0 -3.24955,-0.55398 -3.24955,-3.67392z" fill="#000000" stroke="#ff4766" stroke-width="1.5" stroke-linecap="butt"/><path d="M64.56124,75.46067h350.79067" fill="none" stroke="#ff4766" stroke-width="1.5" stroke-linecap="round"/><text transform="translate(390.50883,66.64835) scale(0.36754,0.36754)" font-size="40" xml:space="preserve" fill="#ff4766" fill-rule="nonzero" stroke="none" stroke-width="1" stroke-linecap="butt" stroke-linejoin="miter" stroke-miterlimit="10" stroke-dasharray="" stroke-dashoffset="0" font-family="Sans Serif" font-weight="normal" text-anchor="start" style="mix-blend-mode: normal"><tspan x="0" dy="0">[x]</tspan></text><text transform="translate(91.59198,221.99356) scale(0.30736,0.30736)" font-size="40" xml:space="preserve" fill="#ffffff" fill-rule="nonzero" stroke="none" stroke-width="1" stroke-linecap="butt" stroke-linejoin="miter" stroke-miterlimit="10" stroke-dasharray="" stroke-dashoffset="0" font-family="MS PGothic" font-weight="normal" text-anchor="start" style="mix-blend-mode: normal"><tspan x="0" dy="0">I'm Linus, a middle schooler who likes playing</tspan><tspan x="0" dy="48px">the piano, and making websites and video games</tspan><tspan x="0" dy="48px">on the internet. I made this site to improve my HTML</tspan><tspan x="0" dy="48px">and graphic design skills.</tspan></text><text transform="translate(68.25994,66.03243) scale(0.32848,0.32848)" font-size="40" xml:space="preserve" fill="#ff4766" fill-rule="nonzero" stroke="none" stroke-width="1" stroke-linecap="butt" stroke-linejoin="miter" stroke-miterlimit="10" stroke-dasharray="" stroke-dashoffset="0" font-family="MS PGothic" font-weight="normal" text-anchor="start" style="mix-blend-mode: normal"><tspan x="0" dy="0">main//abtme</tspan></text><text transform="translate(361.45557,306.5215) scale(0.32848,0.32848)" font-size="40" xml:space="preserve" fill="#ff4766" fill-rule="nonzero" stroke="none" stroke-width="1" stroke-linecap="butt" stroke-linejoin="miter" stroke-miterlimit="10" stroke-dasharray="" stroke-dashoffset="0" font-family="MS PGothic" font-weight="normal" text-anchor="start" style="mix-blend-mode: normal"><tspan x="0" dy="0">/settings</tspan></text><path d="M90.64508,182.63043l3.27102,-58.7504l46.06815,6.42849l-2.45699,57.38021z" fill="#ffffff" stroke="none" stroke-width="1.5" stroke-linecap="butt"/><path d="M184.67722,199.76491l3.49185,-59.07464l24.25791,-3.56133l21.69834,48.53902z" fill="#ffffff" stroke="none" stroke-width="0" stroke-linecap="butt"/><path d="M257.99815,174.27574l-5.52542,-33.67008l55.06337,-6.35778l-2.57302,47.19331z" fill="#ffffff" stroke="none" stroke-width="0" stroke-linecap="butt"/><text transform="translate(96.39246,173.97576) rotate(-3.08668) scale(2.07116,1.86629) skewX(-0.16701)" font-size="40" xml:space="preserve" fill="#000000" fill-rule="nonzero" stroke="#000000" stroke-width="0" stroke-linecap="butt" stroke-linejoin="miter" stroke-miterlimit="10" stroke-dasharray="" stroke-dashoffset="0" font-family="MS PMincho" font-weight="normal" text-anchor="start" style="mix-blend-mode: normal"><tspan x="0" dy="0">a</tspan></text><text transform="translate(141.94878,172.79271) rotate(2.7026) scale(3.73316,4.81438) skewX(-3.02619)" font-size="16" xml:space="preserve" fill="#ffffff" fill-rule="nonzero" stroke="none" stroke-width="1" stroke-linecap="butt" stroke-linejoin="miter" stroke-miterlimit="10" stroke-dasharray="" stroke-dashoffset="0" font-family="Arial Black" font-weight="500" text-anchor="start" style="mix-blend-mode: normal"><tspan x="0" dy="0">b</tspan></text><text transform="translate(262.66666,169.12523) rotate(-6.46494) scale(0.97966,0.97966)" font-size="50.8" xml:space="preserve" fill="#000000" fill-rule="nonzero" stroke="none" stroke-width="0.26458" stroke-linecap="butt" stroke-linejoin="miter" stroke-miterlimit="10" stroke-dasharray="" stroke-dashoffset="0" font-family="Serif" font-weight="bold" text-anchor="start" style="mix-blend-mode: normal"><tspan x="0" dy="0">m</tspan></text><text transform="translate(309.53085,171.22349) rotate(-4.1766) scale(3.55557,2.78073) skewX(0.00003)" font-size="16" xml:space="preserve" fill="#ffffff" fill-rule="nonzero" stroke="none" stroke-width="1" stroke-linecap="butt" stroke-linejoin="miter" stroke-miterlimit="10" stroke-dasharray="" stroke-dashoffset="0" font-family="Arial Black" font-weight="500" text-anchor="start" style="mix-blend-mode: normal"><tspan x="0" dy="0">e</tspan></text><text transform="translate(196.86688,182.78725) rotate(-3.08668) scale(1.53668,1.38468) skewX(-0.16692)" font-size="40" xml:space="preserve" fill="#000000" fill-rule="nonzero" stroke="#000000" stroke-width="0" stroke-linecap="butt" stroke-linejoin="miter" stroke-miterlimit="10" stroke-dasharray="" stroke-dashoffset="0" font-family="MS PMincho" font-weight="normal" text-anchor="start" style="mix-blend-mode: normal"><tspan x="0" dy="0">t</tspan></text></g></g></svg>