<svg version="1.1" xmlns="http://www.w3.org/2000/svg" xmlns:xlink="http://www.w3.org/1999/xlink" width="626.46946" height="437.47868" viewBox="0,0,626.46946,437.47868"><g transform="translate(63.39146,23.13594)"><g data-paper-data="{&quot;isPaintingLayer&quot;:true}" fill-rule="nonzero" stroke-linecap="butt" stroke-linejoin="miter" stroke-miterlimit="10" stroke-dasharray="" stroke-dashoffset="0" style="mix-blend-mode: normal"><path d="M-63.39146,414.34274v-437.47868h626.46946v437.47868z" fill="#ffffff" stroke="none" stroke-width="0"/><text transform="translate(26.36072,86.20241) scale(0.93311,0.93311)" font-size="40" xml:space="preserve" fill="#000000" fill-rule="nonzero" stroke="#000000" stroke-width="0.5" stroke-linecap="butt" stroke-linejoin="miter" stroke-miterlimit="10" stroke-dasharray="" stroke-dashoffset="0" font-family="MS Gothic" font-weight="normal" text-anchor="start" style="mix-blend-mode: normal"><tspan x="0" dy="0">welcome to Linus' page.</tspan></text><path d="M262.00275,298.47487c-3.109,-0.19461 -2.21942,2.94347 -2.38019,5.47517c-0.02865,0.4512 -0.40389,0.88646 -0.29205,1.32452c0.10412,0.40783 3.08901,0.17891 3.34482,-0.0769c0.7728,-0.7728 0.14349,-2.18232 0.15202,-3.27519c0.00883,-1.13131 -0.13054,-2.31619 -0.61742,-3.33742zM265.51167,295.52752c1.64273,3.22366 3.5995,9.59824 0.34563,12.85211c-2.4729,2.4729 -8.51511,2.16205 -10.4427,-0.88793c-0.63285,-1.00135 -0.24697,-2.35796 -0.29205,-3.54166c-0.13289,-3.48955 0.00543,-8.04466 3.82206,-9.78351c0.20473,-0.09328 0.41762,-0.15316 0.63616,-0.1899c-1.05041,-6.64153 -0.40307,-13.7249 -0.40307,-20.44021c0,-11.23063 0,-22.46127 0,-33.6919c-1.86298,0.00396 -3.72518,0.00378 -5.58592,0.00378c-1.09869,0 -2.19693,-0.00319 -3.29477,-0.00915c0.02513,23.27229 0.4042,46.50525 0.4042,69.7881c0,6.60005 -0.3061,13.16726 -0.38641,19.73425l2.09204,0.43454c1.96224,0.66928 4.74052,1.32961 5.972,3.24106c3.46249,5.3743 -1.78168,9.35594 -6.41815,10.7735c-5.06066,1.54725 -10.02419,-0.38212 -15.04949,-0.71635c-1.25594,-0.08353 -2.54064,0.22662 -3.77613,-0.01408c-1.46524,-0.28546 -3.17853,-0.45689 -4.20494,-1.5408c-1.32146,-1.39551 -1.17496,-5.80244 -0.32222,-7.39422c1.80221,-3.36412 5.29904,-4.26706 8.66808,-4.7989c-0.04107,-7.39583 -0.39491,-14.77957 -0.40164,-22.15208c0,-22.52807 -1.54037,-45.03711 -1.61894,-67.57352c-11.58796,-0.24441 -23.16031,-0.59635 -34.78326,-0.58337c-8.54119,0.00953 -17.12597,1.00074 -25.64279,0.8771l0.05622,0.3092l-4.38374,0.79704c-0.14421,0.02901 -0.29342,0.04423 -0.44617,0.04423c-1.24264,0 -2.25,-1.00736 -2.25,-2.25c0,-0.8982 0.52631,-1.67348 1.28737,-2.03426l2.29538,-1.14769c3.48954,-2.32926 7.5122,-4.78341 10.48544,-7.76261c5.56463,-5.57578 9.01917,-12.1197 12.39047,-19.14055c3.81646,-9.57092 8.51232,-18.68522 12.21833,-28.3137c1.01252,-2.63059 2.45141,-5.06455 3.15741,-7.83699c0.39924,-1.56779 0.24709,-3.22637 0.34196,-4.84141c0.28575,-4.8645 0.80823,-9.60718 0.80823,-14.48646c0,0 0,-0.13974 0.03482,-0.34956c-0.02262,-0.14221 -0.03482,-0.29574 -0.03482,-0.46147c0,-2.25 2.25,-2.25 2.25,-2.25c20.67711,0 40.96916,-3.99368 61.56999,-4.05444c0.02253,-0.00046 0.04529,-0.00071 0.06829,-0.00071c0.01719,0 0.03426,0.00014 0.0512,0.00039c0.1181,-0.00026 0.2362,-0.00039 0.35432,-0.00039h0.40552c0,0 2.25,0 2.25,2.25c0,0.90019 -0.36015,1.44023 -0.79227,1.76421c0.20701,9.79316 2.09401,19.02031 3.99508,28.62579c0.54618,2.75963 -0.00859,5.47131 0.41777,8.17904c0.75778,4.81249 2.42204,10.08299 4.34284,14.56485c0.85737,2.61354 2.05482,4.16787 3.46757,6.52202c2.80995,4.68239 5.61034,10.00039 9.48215,13.85745c3.9139,3.89901 9.06439,6.55179 13.95583,9.062l2.14389,0.35731c1.08453,0.1611 1.91659,1.09612 1.91659,2.22547c0,1.09035 -0.77559,1.99957 -1.80517,2.20604l-3.60638,0.80141l-0.00423,-0.01904c-0.03321,0.01335 -0.0665,0.02655 -0.09985,0.0396c-1.7622,0.68945 -4.8999,0.32187 -6.73244,0.43418c-2.07806,0.12736 -4.11868,0.39242 -6.16107,0.64312c-0.46683,0.17225 -0.8725,0.17226 -0.8725,0.17226l-0.08732,-0.02262c-11.11127,1.58672 -22.37044,1.94546 -33.62239,2.02653c0,11.23726 0,22.47451 0,33.71177c0,6.5111 -0.71789,13.48228 0.37491,19.90585l0.02245,1.16366zM232.6092,336.20426c-0.38892,0.6839 -0.94325,1.85514 -0.32222,2.33814c1.31453,1.02235 3.33382,-0.04386 4.99541,0.06718c3.706,0.24764 7.26081,1.43748 11.00934,1.21454c1.42314,-0.08465 6.4007,-1.22001 6.87489,-3.06492c0.43729,-1.70135 -3.39936,-2.44057 -4.18278,-2.69408l-0.68812,-0.13068v0.42924c0,0 0,2.25 -2.25,2.25c-2.25,0 -2.25,-2.25 -2.25,-2.25v-2.02758c0,-7.5618 0.40551,-15.11075 0.40551,-22.70884c0,-23.29591 -0.3795,-46.54173 -0.40425,-69.82718c-2.0147,-0.02358 -4.02832,-0.05473 -6.04122,-0.09096c0.08229,22.50678 1.61863,44.98631 1.61863,67.48505c-0.00764,7.82337 0.40552,15.66893 0.40552,23.51987v2.43309c0,0 0,2.25 -2.25,2.25c-1.40506,0 -1.9327,-0.87742 -2.13085,-1.53642c-1.76893,0.24241 -3.83194,0.65911 -4.78985,2.34355zM248.04571,235.19558c0.33842,0 0.62593,0.0509 0.87021,0.13739c1.55804,0.00993 3.11663,0.01533 4.67587,0.01533c11.44436,0 22.94544,0.01741 34.33308,-0.99994c0.28634,-0.12909 0.50546,-0.17292 0.50546,-0.17292l2.46884,-0.44921c1.2945,0.00095 2.58649,-0.04699 3.87685,-0.12523c0.62969,-0.08199 1.25893,-0.16782 1.88768,-0.25767l0.72371,-0.02261c0,0 0.17499,0 0.42738,0.0488c2.7548,-0.24451 5.50522,-0.56068 8.25974,-0.76657c-3.899,-2.12985 -7.65698,-4.57395 -10.76347,-7.69077c-4.06408,-4.0776 -7.02573,-9.59961 -9.98257,-14.52859c-1.51879,-2.53179 -2.87762,-4.44311 -3.8317,-7.26549c-2.02419,-4.72312 -3.81054,-10.35432 -4.57849,-15.44325c-0.40723,-2.69853 0.15529,-5.32859 -0.39326,-8.04156c-1.96007,-9.69382 -3.81424,-19.09041 -4.06719,-28.97724c-19.11126,0.30213 -37.98312,3.75872 -57.16417,4.01865c0.02552,6.15299 0.14988,13.15864 -1.28627,18.98908c-0.73048,2.96556 -2.25231,5.57727 -3.33083,8.38361c-3.72342,9.68851 -8.47043,18.85353 -12.29044,28.48816c-3.6201,7.54988 -7.39116,14.58714 -13.38463,20.57017c-1.50603,1.50341 -3.24793,2.88436 -5.0623,4.18561c4.16905,-0.35869 8.28035,-0.70547 12.47954,-0.73362c18.30839,-0.12275 36.51607,0.60887 54.79347,0.76264c0.23624,-0.0788 0.51189,-0.12477 0.83351,-0.12477z" fill="#000000" stroke="none" stroke-width="0.5"/></g></g></svg>